<svg width="191.000000" height="159.000000" viewBox="0 0 191 159" fill="none" xmlns="http://www.w3.org/2000/svg" xmlns:xlink="http://www.w3.org/1999/xlink">
	<desc>
			Created with Pixso.
	</desc>
	<defs/>
	<rect id="画板 6" width="190.560547" height="158.119507" fill="#FFFFFF" fill-opacity="0"/>
	<path id="矢量 24" d="M149.75 135.46C145.36 130.03 145.98 121.95 151.42 117.42C156.85 112.89 164.84 113.63 169.23 119.07L184.04 137.1C188.43 142.54 187.81 150.62 182.37 155.15C176.94 159.67 168.95 158.94 164.56 153.5L149.75 135.46Z" fill="#5C5C5C" fill-opacity="1.000000" fill-rule="evenodd"/>
	<path id="矢量 25" d="M0.51 78.84C-0.51 72.85 3.51 67.16 9.5 66.13C15.49 65.1 21.17 69.12 22.19 75.11L34.02 144.26C35.04 150.25 31.03 155.94 25.04 156.97C19.05 158 13.36 153.98 12.34 147.99L0.51 78.84Z" fill="#0078D7" fill-opacity="1.000000" fill-rule="evenodd"/>
	<path id="矢量 26" d="M48.75 109.59C45.46 108.33 42.29 106.6 39.22 104.41C34.6 101.09 30.9 97.21 28.12 92.75C25.34 88.28 23.48 83.23 22.55 77.62C21.63 72.01 21.76 66.64 22.95 61.52C24.14 56.4 26.4 51.51 29.71 46.88C33.03 42.25 36.92 38.55 41.38 35.77C45.57 33.17 50.26 31.37 55.46 30.39C61.64 21.99 69.54 14.86 78.75 9.56C70.55 7.48 61.79 7.03 52.91 8.5C18.46 14.21 -4.85 46.76 0.85 81.21C6.25 113.86 35.75 136.49 68.14 133.92C60.16 127.32 53.51 119.08 48.75 109.59Z" fill="#37A5FC" fill-opacity="1.000000" fill-rule="evenodd"/>
	<path id="椭圆 6" d="M130.9 65.87C131.17 84.63 116.15 100.08 97.39 100.35C78.63 100.61 63.18 85.59 62.91 66.83C62.65 48.07 77.67 32.62 96.43 32.35C115.19 32.09 130.64 47.11 130.9 65.87Z" fill="#37A5FC" fill-opacity="1.000000" fill-rule="evenodd"/>
	<path id="椭圆 8" d="M105.84 61.22C105.98 71.15 98.02 79.33 88.09 79.47C78.16 79.61 69.98 71.66 69.84 61.73C69.7 51.8 77.65 43.62 87.58 43.48C97.52 43.34 105.7 51.29 105.84 61.22Z" fill="#AEDBFF" fill-opacity="1.000000" fill-rule="evenodd"/>
	<path id="矢量 23" d="M189.37 62.99C196.37 104.21 168.76 143.45 127.65 150.53C86.54 157.6 47.38 129.87 40.38 88.64C33.38 47.41 60.99 8.18 102.1 1.1C143.21 -5.98 182.37 21.76 189.37 62.99ZM123.94 128.84C131.12 127.61 137.56 125.2 143.28 121.63C149.16 117.95 154.26 113.04 158.6 106.89C162.89 100.81 165.78 94.42 167.3 87.72C168.82 81.03 168.93 74.03 167.69 66.72C166.45 59.41 163.98 52.85 160.34 47.05C156.7 41.24 151.83 36.18 145.77 31.88C139.65 27.54 133.2 24.61 126.43 23.12C119.86 21.66 112.98 21.55 105.81 22.78C98.63 24.02 92.19 26.42 86.47 30C80.59 33.67 75.49 38.58 71.15 44.73C66.86 50.81 63.97 57.2 62.45 63.9C60.93 70.59 60.82 77.59 62.06 84.91C63.3 92.22 65.76 98.77 69.41 104.58C73.05 110.39 77.92 115.44 83.98 119.74C90.1 124.09 96.55 127.01 103.31 128.51C109.89 129.97 116.77 130.08 123.94 128.84Z" fill="#5C5C5C" fill-opacity="1.000000" fill-rule="evenodd"/>
</svg>
